<svg version="1.2" xmlns="http://www.w3.org/2000/svg" viewBox="0 0 257 209" width="257" height="209">
	<title>twitter-svg</title>
	<style>
		.s0 { fill: #f5f1ff } 
	</style>
	<path id="Layer" class="s0" d="m230.2 52.5c0.1 2.2 0.1 4.5 0.1 6.8 0 69.5-52.9 149.7-149.7 149.7-29.7 0-57.3-8.7-80.6-23.6 4.2 0.5 8.4 0.7 12.6 0.7 24.6 0 47.3-8.4 65.3-22.5-23-0.4-42.4-15.6-49.1-36.5q4.8 0.9 9.9 0.9c4.8 0 9.5-0.7 13.9-1.9-24.1-4.8-42.2-26.1-42.2-51.6v-0.6c7.1 3.9 15.2 6.3 23.8 6.6-14.1-9.5-23.4-25.6-23.4-43.8 0-9.7 2.6-18.7 7.1-26.5 25.9 31.9 64.7 52.8 108.4 55-1-3.9-1.4-7.9-1.4-12 0-29 23.6-52.6 52.6-52.6 15.1 0 28.8 6.4 38.4 16.6 12-2.4 23.2-6.8 33.4-12.8-3.9 12.3-12.2 22.6-23.1 29.1 10.6-1.3 20.8-4.1 30.2-8.3-7 10.6-15.9 19.8-26.2 27.3z"/>
</svg>